# xmcd CD database file
#
# Track frame offsets:
#	150
#	13022
#	25560
#	34089
#	44144
#	54707
#	65099
#	77331
#	87281
#	96312
#	104092
#	115049
#	124644
#	136869
#	146892
#	158305
#	171108
#	182796
#	194826
#	205065
#
# Disc length: 2883 seconds
#
# Revision: 0
# Processed by: cddbd v1.5.1PL2 Copyright (c) Steve Scherf et al.
# Submitted via: CDex 1.51
#
DISCID=180b4114
DTITLE=Johnny Cash - 20 Greatest Hits
DYEAR=2003
DGENRE=Country
TTITLE0=Folsom Prison Blues
TTITLE1=I Walk The Line
TTITLE2=Guess Things Hapen That Way
TTITLE3=Ballad of a Teenage Queen
TTITLE4=There You Go
TTITLE5=The Ways Of A Woman In Love
TTITLE6=You're The Nearest Thing To Heaven
TTITLE7=Big River
TTITLE8=Katy Too
TTITLE9=Come In Stranger
TTITLE10=I Just Thought You'd Like To Know
TTITLE11=Down The Street To 301
TTITLE12=Home Of The Blues
TTITLE13=Rock Island Line
TTITLE14=Oh Lonesome Me
TTITLE15=Next In Line
TTITLE16=Born To Lose
TTITLE17=So Doggone Lonesome
TTITLE18=Hey Porter
TTITLE19=Cry Cry Cry
EXTD=YEAR: 2003
EXTT0=
EXTT1=
EXTT2=
EXTT3=
EXTT4=
EXTT5=
EXTT6=
EXTT7=
EXTT8=
EXTT9=
EXTT10=
EXTT11=
EXTT12=
EXTT13=
EXTT14=
EXTT15=
EXTT16=
EXTT17=
EXTT18=
EXTT19=
PLAYORDER=
